<svg width="18" height="42" viewBox="0 0 18 42" fill="none" xmlns="http://www.w3.org/2000/svg">
<path fill-rule="evenodd" clip-rule="evenodd" d="M12.9381 5C12.9381 7.76142 11.0072 10 8.62539 10C6.24356 10 4.3127 7.76142 4.3127 5C4.3127 2.23858 6.24356 0 8.62539 0C11.0072 0 12.9381 2.23858 12.9381 5ZM15.5257 10H8.62539H1.72508C0.772345 10 0 10.8954 0 12V23C0 24.1046 0.772345 25 1.72508 25C2.67781 25 3.45016 24.1046 3.45016 23V14H4.3127V25C4.3127 25.1726 4.33157 25.3402 4.36705 25.5C4.33157 25.6598 4.3127 25.8274 4.3127 26V40C4.3127 41.1046 5.08504 42 6.03778 42C6.99051 42 7.76285 41.1046 7.76285 40V27H9.48793V40C9.48793 41.1046 10.2603 42 11.213 42C12.1658 42 12.9381 41.1046 12.9381 40V26C12.9381 25.8274 12.9192 25.6598 12.8838 25.5C12.9192 25.3402 12.9381 25.1726 12.9381 25V14H13.8006V23C13.8006 24.1046 14.5729 25 15.5257 25C16.4785 25 17.2508 24.1046 17.2508 23V12C17.2508 10.8954 16.4785 10 15.5257 10Z" fill="white"/>
</svg>
