<?xml version="1.0" encoding="utf-8"?>
<!-- Generator: Adobe Illustrator 21.0.2, SVG Export Plug-In . SVG Version: 6.00 Build 0)  -->
<svg version="1.1" id="Layer_1" xmlns="http://www.w3.org/2000/svg" xmlns:xlink="http://www.w3.org/1999/xlink" x="0px" y="0px"
	 viewBox="0 0 288 560" style="enable-background:new 0 0 288 560;" xml:space="preserve">
<style type="text/css">
	.st0{clip-path:url(#SVGID_2_);fill:#010002;}
</style>
<g>
	<defs>
		<rect id="SVGID_1_" x="-56" y="106" width="399.8" height="348"/>
	</defs>
	<clipPath id="SVGID_2_">
		<use xlink:href="#SVGID_1_"  style="overflow:visible;"/>
	</clipPath>
	<path class="st0" d="M339.9,441.7c-4.5-2.1-8.8-4.9-13.4-7.8c-9.9-6.4-20.2-13-33.4-13c-10.2,0-19,5.5-27.4,10.9
		c-7.7,4.9-15,9.4-22.4,9.4c-0.5,0-1.1-0.1-1.6-0.1l49.2-131.8c0,0,0,0,0,0c0,0,0,0,0,0c0.3-0.7,0.4-1.5,0.4-2.3l-0.6-43.2
		c0-2.9-2.1-5.4-4.9-6.1l-45.1-10.3v-50.5c0-2.3-1.9-4.2-4.2-4.2h-17.4v-29.3c0-2.3-1.9-4.2-4.2-4.2h-48.3v-32.3
		c0-5.7-2.3-11-6.6-15c-4.3-4-10.1-6.1-16-5.8c-5.9-0.3-11.8,1.8-16,5.8c-4.2,4-6.6,9.3-6.6,15v32.3H73c-2.3,0-4.2,1.9-4.2,4.2v29.3
		H51.4c-2.3,0-4.2,1.9-4.2,4.2v50.5L2,257.6c-2.9,0.6-4.9,3.2-4.9,6.1l-0.6,43.2c0,0.7,0.1,1.4,0.3,2.1c0,0,0,0,0,0c0,0,0,0,0,0v0
		c0,0,0,0,0,0c0,0,0,0,0,0v0c0,0,0,0,0,0v0c0,0,0,0,0,0c0,0,0,0,0,0c0,0,0,0,0,0c0,0,0,0,0,0c0,0,0,0,0,0c0,0,0,0,0,0c0,0,0,0,0,0
		c0,0,0,0,0,0c0,0,0,0,0,0c0,0,0,0,0,0c0,0,0,0,0,0c0,0,0,0,0,0c0,0,0,0,0,0c0,0,0,0,0,0c0,0,0,0,0,0c0,0,0,0,0,0L46,440.9
		c-0.7,0.1-1.4,0.2-2.1,0.2c-7.2,0-14.4-4.6-22.1-9.4c-8.5-5.4-17.4-10.9-27.6-10.9c-13.2,0-23.4,6.6-33.3,13.1
		c-4.6,3-8.9,5.8-13.4,7.8c-3.2,1.5-4.6,5.2-3.1,8.4c1.1,2.3,3.4,3.7,5.8,3.7c0.9,0,1.8-0.2,2.7-0.6c5.3-2.4,10.2-5.6,14.9-8.7
		c8.7-5.7,16.9-11,26.4-11c6.5,0,13.5,4.4,20.8,9c8.8,5.6,18,11.3,28.8,11.3c3.6,0,6.9-0.7,10.2-1.7c0.2,0,0.3,0.1,0.5,0.1
		c0.7,0,1.5-0.1,2.2-0.4c0.9-0.3,1.7-0.9,2.3-1.6c4.6-2.1,8.9-4.8,13.1-7.5c7.4-4.7,14.4-9.2,21.5-9.2c7.1,0,14.3,4.5,21.8,9.2
		c8.6,5.4,17.5,11.1,28.1,11.1c10.7,0,19.4-5.9,27.1-11.2c6.9-4.7,13.4-9.1,20.4-9.1c7.1,0,14.6,4.5,22.6,9.2c5,3,10.1,6,15.5,8.1
		c0.5,0.4,1,0.7,1.6,0.9c0.7,0.3,1.4,0.4,2.1,0.4c3.3,1,6.7,1.7,10.3,1.7c11.1,0,20.7-6.1,29.2-11.4c7.3-4.6,14.1-8.9,20.7-8.9
		c9.5,0,17.8,5.4,26.5,11c4.8,3.1,9.7,6.3,15,8.7c3.2,1.5,7,0.1,8.4-3.1C344.5,446.9,343.1,443.1,339.9,441.7L339.9,441.7z
		 M129.7,126.8c0-3.3,1.4-6.5,3.9-8.8c2.7-2.5,6.2-3.8,10-3.5c0.2,0,0.4,0,0.5,0c3.8-0.3,7.3,1,10,3.5c2.5,2.3,3.9,5.5,3.9,8.8v32.3
		h-28.3L129.7,126.8L129.7,126.8z M77.2,167.5h133.2v25.1H77.2V167.5z M55.6,201.1H232v44.3l-86.2-19.6c-0.7-0.2-1.4-0.2-2-0.1
		c-0.7-0.1-1.4-0.1-2.1,0.1l-86.2,19.6V201.1z M9.7,268.8l134.1-30.6l134.1,30.6l0.4,30l-133-32.6c-0.1,0-0.2,0-0.2,0
		c-0.2,0-0.4-0.1-0.7-0.1c-0.2,0-0.4,0-0.6,0c-0.2,0-0.4,0-0.6,0c-0.2,0-0.4,0-0.6,0.1c-0.1,0-0.2,0-0.3,0l-133,32.6L9.7,268.8z
		 M93.6,420.8c-10.8,0-19.7,5.7-28.3,11.2c-2.5,1.6-5,3.2-7.5,4.6L11.2,311.4L139.6,280v160.6c-5.6-1.2-11.4-4.8-17.4-8.6
		C113.5,426.5,104.4,420.8,93.6,420.8L93.6,420.8z M191,420.8c-10.9,0-19.8,6-27.6,11.3c-5.3,3.6-10.3,7-15.4,8.3V280l128.3,31.5
		l-46.9,125.6c-3.1-1.6-6.2-3.4-9.4-5.3C211,426.4,201.6,420.8,191,420.8L191,420.8z M191,420.8"/>
</g>
</svg>
