<svg id="Layer_1" data-name="Layer 1" xmlns="http://www.w3.org/2000/svg" xmlns:xlink="http://www.w3.org/1999/xlink" viewBox="0 0 348.27 348.27"><defs><style>.cls-1{fill:none;}.cls-2{clip-path:url(#clip-path);}</style><clipPath id="clip-path" transform="translate(0 0)"><rect class="cls-1" width="348.96" height="349"/></clipPath></defs><title>mai</title><g class="cls-2"><path d="M342.24,180.44c-1.5-2.06-3-4.17-4.41-6.3,1.44-2.13,2.91-4.24,4.41-6.3a30.93,30.93,0,0,0-31-48.52c-3.25.64-6.5,1.33-9.74,2q4.21-2.67,8.34-5.43a30.93,30.93,0,0,0-12.43-56.21c-2.51-.4-5-.84-7.57-1.33-.49-2.51-.94-5-1.33-7.57a30.94,30.94,0,0,0-56.21-12.42q-2.77,4.13-5.43,8.33c.72-3.24,1.41-6.49,2-9.73A30.35,30.35,0,0,0,215.22,5a30.33,30.33,0,0,0-34.79,1c-2.07,1.51-4.18,3-6.29,4.42C172,9,169.9,7.53,167.84,6a30.32,30.32,0,0,0-34.78-1,30.35,30.35,0,0,0-13.74,32c.64,3.25,1.33,6.5,2,9.73-1.78-2.8-3.59-5.59-5.43-8.33A30.93,30.93,0,0,0,59.72,50.81c-.4,2.53-.84,5.06-1.33,7.57-2.53.49-5.06.94-7.57,1.33a30.93,30.93,0,0,0-12.43,56.21c2.75,1.84,5.53,3.65,8.33,5.43q-4.86-1.08-9.74-2A30.35,30.35,0,0,0,5,133.06a30.32,30.32,0,0,0,1,34.78c1.5,2.06,3,4.17,4.42,6.31C9,176.27,7.52,178.38,6,180.43A30.32,30.32,0,0,0,5,215.21a30.27,30.27,0,0,0,25.78,14.36A32.16,32.16,0,0,0,37,229c3.25-.64,6.5-1.33,9.74-2q-4.2,2.67-8.33,5.43a30.93,30.93,0,0,0,12.43,56.2c2.47.39,5,.84,7.57,1.34.49,2.52.93,5,1.33,7.58A30.32,30.32,0,0,0,83.56,322.8a32.65,32.65,0,0,0,7,.78,30.25,30.25,0,0,0,25.35-13.7q2.77-4.12,5.44-8.33-1.08,4.86-2.05,9.73a30.93,30.93,0,0,0,48.54,31c2-1.47,4.12-2.95,6.28-4.41,2.16,1.46,4.26,2.93,6.3,4.42a30.93,30.93,0,0,0,48.53-31c-.64-3.25-1.33-6.49-2.05-9.73,1.78,2.8,3.59,5.59,5.44,8.34a30.26,30.26,0,0,0,25.35,13.7,32.36,32.36,0,0,0,7-.78,30.32,30.32,0,0,0,23.84-25.34c.4-2.53.84-5.06,1.33-7.57,2.51-.49,5-.93,7.57-1.34a30.93,30.93,0,0,0,12.43-56.2q-4.12-2.77-8.34-5.43,4.86,1.08,9.74,2a32.15,32.15,0,0,0,6.23.61,31,31,0,0,0,24.73-49.13ZM174.13,218.11a44,44,0,0,1,0-87.94h0a44,44,0,0,1,44,43.93s0,0,0,0,0,0,0,0a44,44,0,0,1-44,43.92ZM243.63,46a17.33,17.33,0,0,1,31.48,6.94c.67,4.24,1.46,8.51,2.37,12.67a6.8,6.8,0,0,0,5.22,5.2c4.2.91,8.45,1.69,12.65,2.35a17.34,17.34,0,0,1,7,31.49,398,398,0,0,1-78.37,40.66,57.29,57.29,0,0,0-4.59-6.75l29.23-29.23A6.8,6.8,0,1,0,239,99.7l-29.23,29.23a59,59,0,0,0-6.75-4.59A397.56,397.56,0,0,1,243.63,46ZM140.36,16.44a17,17,0,0,1,19.47.58c3.45,2.52,7,5,10.61,7.28a6.8,6.8,0,0,0,7.37,0C181.39,22,185,19.55,188.43,17a17.33,17.33,0,0,1,27.17,17.36A397.21,397.21,0,0,1,189,118.51a57.35,57.35,0,0,0-8-1.53V75.66a6.8,6.8,0,0,0-13.6,0V117a57.18,57.18,0,0,0-8,1.53,397.53,397.53,0,0,1-26.64-84.14,17,17,0,0,1,7.7-17.93ZM38.75,86.51A17,17,0,0,1,52.93,73.15c4.19-.66,8.45-1.45,12.65-2.35a6.8,6.8,0,0,0,5.21-5.2c.9-4.16,1.7-8.43,2.36-12.67A17.33,17.33,0,0,1,104.64,46a397.57,397.57,0,0,1,40.66,78.36,58.25,58.25,0,0,0-6.76,4.59L109.3,99.7a6.8,6.8,0,1,0-9.62,9.62l29.24,29.24a58,58,0,0,0-4.59,6.75A397.38,397.38,0,0,1,46,104.64a17,17,0,0,1-7.23-18.13Zm-4.38,129.1A17.33,17.33,0,0,1,17,188.44c2.5-3.45,5-7,7.27-10.61a6.79,6.79,0,0,0,0-7.38c-2.32-3.6-4.77-7.17-7.28-10.62a17.33,17.33,0,0,1,17.34-27.18,397.17,397.17,0,0,1,84.14,26.66,57.4,57.4,0,0,0-1.53,8H75.65a6.8,6.8,0,0,0,0,13.6H117a56.61,56.61,0,0,0,1.53,8,397.1,397.1,0,0,1-84.14,26.66Zm70.27,86.68a17.33,17.33,0,0,1-31.49-6.94c-.66-4.24-1.46-8.51-2.36-12.67a6.8,6.8,0,0,0-5.21-5.21c-4.3-.93-8.55-1.72-12.65-2.36A17.33,17.33,0,0,1,46,243.64,397.49,397.49,0,0,1,124.34,203a57.53,57.53,0,0,0,4.59,6.74L99.69,239a6.8,6.8,0,1,0,9.62,9.62l29.24-29.24a57.4,57.4,0,0,0,6.75,4.6,397.41,397.41,0,0,1-40.66,78.36Zm103.27,29.54a17,17,0,0,1-19.46-.57c-3.37-2.47-7-4.93-10.64-7.29a6.8,6.8,0,0,0-7.37,0c-3.69,2.38-7.27,4.84-10.61,7.28a17.33,17.33,0,0,1-27.18-17.35,397.76,397.76,0,0,1,26.65-84.14,57.18,57.18,0,0,0,8,1.53v41.32a6.8,6.8,0,1,0,13.6,0V231.29a57.29,57.29,0,0,0,8-1.53,397.12,397.12,0,0,1,26.66,84.14,17,17,0,0,1-7.7,17.93Zm101.61-70.07a17,17,0,0,1-14.19,13.36c-4.25.67-8.5,1.47-12.63,2.36a6.8,6.8,0,0,0-5.22,5.21c-.9,4.16-1.7,8.43-2.37,12.67a17.33,17.33,0,0,1-31.48,6.94A397.59,397.59,0,0,1,203,223.93a58.15,58.15,0,0,0,6.75-4.59L239,248.58a6.8,6.8,0,0,0,9.61-9.62l-29.23-29.23a58,58,0,0,0,4.59-6.75,397.49,397.49,0,0,1,78.37,40.66,17,17,0,0,1,7.22,18.13Zm22.3-53.86a17,17,0,0,1-17.93,7.71A397.08,397.08,0,0,1,229.76,189a57.35,57.35,0,0,0,1.53-8H272.6a6.8,6.8,0,1,0,0-13.6H231.29a57.35,57.35,0,0,0-1.53-8,397.22,397.22,0,0,1,84.14-26.65,17.33,17.33,0,0,1,17.34,27.18c-2.5,3.44-4.95,7-7.28,10.61a6.81,6.81,0,0,0,0,7.38c2.32,3.6,4.77,7.17,7.28,10.62a17,17,0,0,1,.58,19.46Zm0,0" transform="translate(0 0)"/></g><path d="M174.13,138.33a35.81,35.81,0,1,0,35.81,35.81,35.85,35.85,0,0,0-35.81-35.81Zm0,58a22.21,22.21,0,1,1,22.21-22.21,22.23,22.23,0,0,1-22.21,22.21Zm0,0" transform="translate(0 0)"/></svg>