<svg id="Layer_1" data-name="Layer 1" xmlns="http://www.w3.org/2000/svg" viewBox="0 0 226 236.39"><title>eckursii-tur</title><path d="M123,114.91a55.85,55.85,0,1,0,55.85,55.85A55.91,55.91,0,0,0,123,114.91Zm0,103.91a48.06,48.06,0,1,1,48.06-48.06A48.11,48.11,0,0,1,123,218.82Zm0,0" transform="translate(-10 -5.8)"/><path d="M123,135.69a35.07,35.07,0,1,0,35.07,35.07A35.11,35.11,0,0,0,123,135.69ZM123,198a27.28,27.28,0,1,1,27.28-27.28A27.31,27.31,0,0,1,123,198Zm0,0" transform="translate(-10 -5.8)"/><path d="M211.32,99.32H157.47l-2.95-17.67a16.52,16.52,0,0,0-15.94-13.51H107.41A16.52,16.52,0,0,0,91.47,81.66L88.53,99.32H34.68A24.71,24.71,0,0,0,10,124v93.52A24.71,24.71,0,0,0,34.68,242.2H211.32A24.71,24.71,0,0,0,236,217.52V124a24.71,24.71,0,0,0-24.68-24.68ZM99.16,82.94a8.79,8.79,0,0,1,8.25-7h31.17a8.79,8.79,0,0,1,8.25,7l2.73,16.38H96.43Zm129,134.58a16.9,16.9,0,0,1-16.89,16.89H34.68a16.9,16.9,0,0,1-16.89-16.89V124a16.9,16.9,0,0,1,16.89-16.89H211.32A16.9,16.9,0,0,1,228.21,124Zm0,0" transform="translate(-10 -5.8)"/><path d="M41.17,91.53H58.32a3.9,3.9,0,1,0,0-7.79H41.17a3.9,3.9,0,0,0,0,7.79Zm0,0" transform="translate(-10 -5.8)"/><path d="M200.93,120.1a14.29,14.29,0,1,0,14.29,14.29,14.3,14.3,0,0,0-14.29-14.29Zm0,20.78a6.49,6.49,0,1,1,6.49-6.49,6.5,6.5,0,0,1-6.49,6.49Zm0,0" transform="translate(-10 -5.8)"/><path d="M77.09,83.38a3.9,3.9,0,1,0,5.43-5.59l-15-14.56,19.14-8.57a3.9,3.9,0,0,0,2.29-4L86.77,29.83l20.17,5.74A3.9,3.9,0,0,0,111.24,34L123,16.65,134.76,34a3.9,3.9,0,0,0,4.29,1.56l20.17-5.74L157.08,50.7a3.9,3.9,0,0,0,2.28,4l19.14,8.57-15,14.56a3.9,3.9,0,0,0,5.43,5.59l19.14-18.57a3.89,3.89,0,0,0-1.12-6.35l-21.82-9.77,2.45-23.78a3.9,3.9,0,0,0-4.94-4.15l-23,6.54L126.22,7.51a3.9,3.9,0,0,0-6.45,0L106.37,27.3l-23-6.54a3.9,3.9,0,0,0-4.94,4.15l2.45,23.78L59.06,58.46a3.89,3.89,0,0,0-1.12,6.35Zm0,0" transform="translate(-10 -5.8)"/></svg>