<svg width="16" height="16" viewbox="0 0 16 16" fill="none" xmlns="http://www.w3.org/2000/svg">
   <g clip-path="url(#clip0)">
      <path d="M6.95001 0.435C7.53001 -0.145 8.47001 -0.145 9.05001 0.435L15.565 6.951C16.145 7.531 16.145 8.47 15.565 9.049L9.05001 15.565C8.47001 16.145 7.53101 16.145 6.95201 15.565L0.435015 9.05C0.297078 8.91234 0.187644 8.74884 0.112978 8.56883C0.0383112 8.38883 -0.00012207 8.19587 -0.00012207 8.001C-0.00012207 7.80613 0.0383112 7.61317 0.112978 7.43317C0.187644 7.25316 0.297078 7.08966 0.435015 6.952L6.95001 0.435ZM8.35001 1.135C8.25719 1.04218 8.13129 0.990036 8.00001 0.990036C7.86874 0.990036 7.74284 1.04218 7.65001 1.135L1.13401 7.65C1.04119 7.74283 0.98905 7.86873 0.98905 8C0.98905 8.13127 1.04119 8.25717 1.13401 8.35L7.65001 14.866C7.74284 14.9588 7.86874 15.011 8.00001 15.011C8.13129 15.011 8.25719 14.9588 8.35001 14.866L14.866 8.35C14.9588 8.25717 15.011 8.13127 15.011 8C15.011 7.86873 14.9588 7.74283 14.866 7.65L8.35001 1.134V1.135Z" fill="black"/>
      <path d="M5.25497 5.786C5.2536 5.81829 5.25886 5.85053 5.2704 5.88072C5.28195 5.91091 5.29956 5.93841 5.32213 5.96155C5.3447 5.98468 5.37177 6.00296 5.40167 6.01524C5.43156 6.02753 5.46366 6.03357 5.49597 6.033H6.32097C6.45897 6.033 6.56897 5.92 6.58697 5.783C6.67697 5.127 7.12697 4.649 7.92897 4.649C8.61497 4.649 9.24297 4.992 9.24297 5.817C9.24297 6.452 8.86897 6.744 8.27797 7.188C7.60497 7.677 7.07197 8.248 7.10997 9.175L7.11297 9.392C7.11402 9.45761 7.14083 9.52017 7.1876 9.5662C7.23437 9.61222 7.29736 9.63801 7.36297 9.638H8.17397C8.24028 9.638 8.30387 9.61166 8.35075 9.56478C8.39763 9.51789 8.42397 9.4543 8.42397 9.388V9.283C8.42397 8.565 8.69697 8.356 9.43397 7.797C10.043 7.334 10.678 6.82 10.678 5.741C10.678 4.23 9.40197 3.5 8.00497 3.5C6.73797 3.5 5.34997 4.09 5.25497 5.786V5.786ZM6.81197 11.549C6.81197 12.082 7.23697 12.476 7.82197 12.476C8.43097 12.476 8.84997 12.082 8.84997 11.549C8.84997 10.997 8.42997 10.609 7.82097 10.609C7.23697 10.609 6.81197 10.997 6.81197 11.549Z" fill="black"/>
   </g>
   <defs>
      <clipPath id="clip0">
         <rect width="16" height="16" fill="white"/>
      </clipPath>
   </defs>
</svg>