<svg width="58" height="42" viewbox="0 0 58 42" fill="none" xmlns="http://www.w3.org/2000/svg">
   <path fill-rule="evenodd" clip-rule="evenodd" d="M23.0115 28.5864V12.2908L38.6812 20.4664L23.0115 28.5864ZM57.42 9.46571C57.42 9.46571 56.8521 5.46854 55.1145 3.70921C52.9081 1.39888 50.4358 1.38921 49.3024 1.25388C41.1872 0.666626 29.0121 0.666626 29.0121 0.666626H28.9879C28.9879 0.666626 16.8127 0.666626 8.69758 1.25388C7.56175 1.38679 5.09192 1.39888 2.88308 3.70921C1.1455 5.46854 0.58 9.46571 0.58 9.46571C0.58 9.46571 0 14.1613 0 18.852V23.2552C0 27.9484 0.58 32.6415 0.58 32.6415C0.58 32.6415 1.1455 36.6363 2.88308 38.398C5.09192 40.7084 7.9895 40.6359 9.28 40.8775C13.92 41.3222 29 41.46 29 41.46C29 41.46 41.1872 41.443 49.3024 40.8558C50.4382 40.7205 52.9081 40.7084 55.1145 38.398C56.8545 36.6363 57.42 32.6415 57.42 32.6415C57.42 32.6415 58 27.9484 58 23.2528V18.8545C58 14.1613 57.42 9.46571 57.42 9.46571Z" fill="#DC0505"/>
</svg>