<svg xmlns="http://www.w3.org/2000/svg" xml:space="preserve" height="55px" version="1.1" style="shape-rendering:geometricPrecision; text-rendering:geometricPrecision; image-rendering:optimizeQuality; fill-rule:evenodd; clip-rule:evenodd"
viewBox="0 0 159.81 83.13"
 xmlns:xlink="http://www.w3.org/1999/xlink">
 <defs>
  <style type="text/css">
   <![CDATA[
    .fil1 {fill:#E31E24;fill-rule:nonzero}
    .fil0 {fill:#0A406A;fill-rule:nonzero}
   ]]>
  </style>
 </defs>
 <g id="Слой_x0020_1">
  <metadata id="CorelCorpID_0Corel-Layer"/>
  <g id="_2755980905232">
   <polygon class="fil0" points="80.48,46.45 80.48,7.57 103.75,7.57 103.75,46.45 95.31,46.45 95.31,13.71 88.92,13.71 88.92,46.45 "/>
   <path id="1" class="fil0" d="M109.51 46.45l0 -38.88 13.06 0c2.33,0 4.25,0.44 5.76,1.32 1.5,0.88 2.62,2.16 3.36,3.84 0.73,1.68 1.1,3.72 1.1,6.12 0,3.01 -0.5,5.3 -1.49,6.89 -0.99,1.58 -2.33,2.68 -4.03,3.28 -1.7,0.61 -3.6,0.92 -5.71,0.92l-3.46 0 0 16.51 -8.59 0zm8.59 -22.51l2.88 0c1.06,0 1.86,-0.2 2.4,-0.58 0.55,-0.38 0.91,-0.96 1.08,-1.73 0.18,-0.77 0.27,-1.74 0.27,-2.92 0,-1 -0.08,-1.87 -0.22,-2.62 -0.14,-0.75 -0.49,-1.35 -1.03,-1.8 -0.55,-0.45 -1.39,-0.67 -2.55,-0.67l-2.83 0 0 10.32z"/>
   <path id="2" class="fil0" d="M148.05 47.02c-2.91,0 -5.21,-0.51 -6.91,-1.53 -1.7,-1.03 -2.91,-2.5 -3.65,-4.42 -0.73,-1.92 -1.1,-4.21 -1.1,-6.86l0 -14.45c0,-2.69 0.37,-4.97 1.1,-6.86 0.74,-1.89 1.95,-3.34 3.65,-4.35 1.7,-1 4,-1.51 6.91,-1.51 2.94,0 5.27,0.51 6.98,1.51 1.72,1.01 2.94,2.46 3.68,4.35 0.73,1.89 1.1,4.17 1.1,6.86l0 14.45c0,2.65 -0.37,4.94 -1.1,6.86 -0.74,1.92 -1.96,3.39 -3.68,4.42 -1.71,1.02 -4.04,1.53 -6.98,1.53zm0 -6.09c0.9,0 1.55,-0.23 1.97,-0.68 0.41,-0.44 0.69,-1.02 0.81,-1.72 0.13,-0.71 0.2,-1.43 0.2,-2.16l0 -18.72c0,-0.77 -0.07,-1.5 -0.2,-2.18 -0.12,-0.69 -0.4,-1.26 -0.81,-1.71 -0.42,-0.45 -1.07,-0.67 -1.97,-0.67 -0.83,0 -1.45,0.22 -1.87,0.67 -0.42,0.45 -0.69,1.02 -0.82,1.71 -0.12,0.68 -0.19,1.41 -0.19,2.18l0 18.72c0,0.73 0.06,1.45 0.17,2.16 0.11,0.7 0.37,1.28 0.77,1.72 0.4,0.45 1.05,0.68 1.94,0.68z"/>
   <polygon class="fil1" points="80.48,76.58 80.48,52.88 85.71,52.88 85.71,62.27 86.24,62.27 89.72,52.88 94.93,52.88 90.6,64 95.07,76.58 89.69,76.58 86.24,66.25 85.71,66.25 85.71,76.58 "/>
   <path id="1" class="fil1" d="M97.12 76.58l0 -23.7 7.96 0c1.42,0 2.59,0.27 3.51,0.81 0.91,0.53 1.6,1.31 2.05,2.34 0.44,1.02 0.67,2.26 0.67,3.73 0,1.83 -0.3,3.23 -0.91,4.19 -0.6,0.97 -1.42,1.64 -2.46,2.01 -1.03,0.37 -2.19,0.55 -3.48,0.55l-2.1 0 0 10.07 -5.24 0zm5.24 -13.72l1.75 0c0.65,0 1.13,-0.12 1.46,-0.36 0.34,-0.23 0.56,-0.58 0.66,-1.05 0.11,-0.47 0.16,-1.06 0.16,-1.78 0,-0.61 -0.04,-1.14 -0.13,-1.6 -0.09,-0.46 -0.3,-0.82 -0.63,-1.09 -0.33,-0.28 -0.85,-0.41 -1.55,-0.41l-1.72 0 0 6.29z"/>
   <path id="2" class="fil1" d="M113.62 81.23l0 -3.46c0.84,0.02 1.57,-0.01 2.19,-0.11 0.63,-0.1 1.13,-0.29 1.52,-0.56 0.39,-0.27 0.65,-0.65 0.78,-1.12 0.13,-0.48 0.1,-1.08 -0.07,-1.8l-5.33 -21.3 4.86 0 2.05 9.74 0.96 6.35 0.7 -6.38 1.73 -9.71 4.91 0 -4.91 22.09c-0.23,1.07 -0.51,1.98 -0.82,2.72 -0.31,0.74 -0.7,1.35 -1.16,1.83 -0.45,0.47 -1.01,0.84 -1.68,1.09 -0.66,0.26 -1.46,0.43 -2.41,0.51 -0.95,0.09 -2.05,0.13 -3.32,0.11z"/>
   <polygon id="3" class="fil1" points="130.12,76.58 130.12,52.88 134.24,52.88 134.24,66.45 140.3,52.88 143.69,52.88 143.69,76.58 139.48,76.58 139.48,62.77 133.31,76.58 "/>
   <path id="4" class="fil1" d="M153.31 77.01c-1.65,0 -2.95,-0.31 -3.9,-0.93 -0.95,-0.63 -1.62,-1.5 -2.02,-2.62 -0.4,-1.12 -0.6,-2.41 -0.6,-3.88l0 -0.84 4.92 0c0,0.03 0,0.15 0,0.35 0,0.19 0,0.38 0,0.55 0,1.17 0.11,2.01 0.35,2.5 0.23,0.5 0.68,0.75 1.34,0.75 0.45,0 0.79,-0.12 1.01,-0.35 0.23,-0.24 0.38,-0.58 0.47,-1.04 0.09,-0.46 0.13,-1.04 0.13,-1.74 0,-1.19 -0.17,-2.09 -0.53,-2.71 -0.35,-0.61 -1.08,-0.93 -2.19,-0.95 -0.02,-0.02 -0.1,-0.03 -0.25,-0.03 -0.14,0 -0.31,0 -0.51,0 -0.19,0 -0.38,0 -0.56,0l0 -3.18c0.14,0 0.28,0 0.41,0 0.14,0 0.28,0 0.41,0 0.14,0 0.27,0 0.38,0 1.15,-0.02 1.92,-0.34 2.29,-0.94 0.37,-0.61 0.55,-1.5 0.55,-2.69 0,-0.92 -0.14,-1.62 -0.42,-2.11 -0.29,-0.49 -0.76,-0.73 -1.42,-0.73 -0.64,0 -1.09,0.26 -1.33,0.78 -0.25,0.51 -0.38,1.2 -0.4,2.06 0,0.04 0,0.2 0,0.48 0,0.28 0,0.56 0,0.83l-4.91 0 0 -1.43c0,-1.42 0.28,-2.63 0.83,-3.61 0.56,-0.99 1.33,-1.73 2.33,-2.24 0.99,-0.51 2.16,-0.76 3.51,-0.76 1.38,0 2.57,0.24 3.55,0.73 0.99,0.49 1.74,1.21 2.27,2.15 0.53,0.95 0.79,2.12 0.79,3.53 0,1.38 -0.28,2.55 -0.85,3.49 -0.57,0.95 -1.25,1.53 -2.05,1.74 0.55,0.22 1.04,0.53 1.48,0.95 0.44,0.42 0.79,0.99 1.04,1.71 0.25,0.73 0.38,1.65 0.38,2.78 0,1.45 -0.21,2.73 -0.63,3.85 -0.42,1.12 -1.11,1.99 -2.06,2.62 -0.96,0.62 -2.23,0.93 -3.81,0.93z"/>
   <g>
    <path class="fil1" d="M38.1 28.54c1.19,0 2.94,0.15 4.57,0.88l16.21 7.2 0 -15.84c0,-3.82 -3.1,-6.92 -6.92,-6.92l-27.71 0c-3.83,0 -6.93,3.1 -6.93,6.92l0 15.84 16.21 -7.21c1.63,-0.72 3.39,-0.87 4.57,-0.87zm3.47 -7.76l10.39 0 0 3.47 -10.39 0 0 -3.47zm-17.32 0l10.39 0 0 3.47 -10.39 0 0 -3.47z"/>
    <path class="fil0" d="M15.95 66.09c0.75,1.75 2.93,3.19 4.83,3.19l13.86 0c1.9,0 5.02,0 6.93,0l13.85 0c1.91,0 4.08,-1.44 4.83,-3.19l7.66 -17.88c0.75,-1.75 -0.06,-3.81 -1.8,-4.59l-24.85 -11.04c-1.74,-0.78 -4.59,-0.78 -6.33,0l-24.84 11.04c-1.74,0.78 -2.55,2.84 -1.8,4.59l7.66 17.88z"/>
    <rect class="fil0" y="72.74" width="76.2" height="3.46"/>
    <rect class="fil0" x="10.39" y="79.67" width="55.42" height="3.46"/>
    <polygon class="fil0" points="51.96,6.93 48.49,6.93 48.49,0 45.03,0 45.03,6.93 31.17,6.93 31.17,0 27.71,0 27.71,6.93 24.25,6.93 24.25,10.39 51.96,10.39 "/>
   </g>
  </g>
 </g>
</svg>