<svg width="64" height="100%" viewBox="0 0 52 48" fill="none" xmlns="http://www.w3.org/2000/svg">
    <g clip-path="url(#clip0)">
        <path d="M52.0333 42.5387C52.0338 43.207 51.8893 43.8688 51.6081 44.4864C51.3269 45.1039 50.9145 45.6651 50.3946 46.1377C49.8746 46.6104 49.2572 46.9853 48.5777 47.2411C47.8982 47.4969 47.1699 47.6285 46.4344 47.6284H5.7119C4.97668 47.6281 4.24871 47.4962 3.56959 47.2403C2.89046 46.9843 2.27347 46.6093 1.75385 46.1367C1.23424 45.6641 0.822166 45.1031 0.541178 44.4857C0.260189 43.8684 0.115785 43.2068 0.116212 42.5387V5.53603C0.116105 4.86822 0.260757 4.20693 0.541909 3.58992C0.823061 2.97291 1.23521 2.41226 1.75481 1.93998C2.27442 1.4677 2.89132 1.09304 3.57027 0.837389C4.24923 0.58174 4.97696 0.450109 5.7119 0.450012H46.4344L52.0195 0.449993C52.0195 0.466187 52 0.926454 52 0.926454V1.97645V3.55145C52 3.55145 52.0336 4.86795 52.0333 5.53603L52.0309 42.5387" fill="#54AAEA"/>
        <path d="M0.0400352 36.3366V45.3156C0.0400352 48.1277 2.54416 47.5925 5.63572 47.5925H46.3582C49.4547 47.5925 51.9572 47.9129 51.9572 45.1008V5.50232C43.0903 34.7634 11.2184 36.6209 0.0375977 36.3366" fill="#54AAEA"/>
        <path d="M34.1821 4.87402H39.6632V14.575H34.1821V4.87402Z" fill="#243438"/>
        <path d="M41.4541 4.87402H46.143V14.575H41.4541V4.87402Z" fill="#243438"/>
        <path d="M52.0001 43.6633H20.1582L7.16064 19.6396H51.9944L52.0001 43.6633Z" fill="#D1D2D3"/>
        <path d="M52.0001 11.6736H29.8514L20.8091 19.839H52.001L52.0001 11.6736Z" fill="#D1D2D3"/>
        <path d="M52.0002 43.6633V31.0092H13.3105L20.1607 43.6633H52.0002Z" fill="#DE374B"/>
        <path d="M51.9998 19.8404V18.3033H22.5061L20.8071 19.8404H51.9998Z" fill="#243438"/>
        <path d="M33.9478 26.5131H37.1303V30.2192H33.9478V26.5131Z" fill="#79BCDA"/>
        <path d="M29.4126 26.5131H32.5943V30.2192H29.4126V26.5131Z" fill="#79BCDA"/>
        <path d="M38.3906 26.5131H41.5732V30.2192H38.3906V26.5131Z" fill="#79BCDA"/>
        <path d="M42.957 26.5131H46.1388V30.2192H42.957V26.5131Z" fill="#79BCDA"/>
        <path d="M47.5718 26.5131H50.7576V30.2192H47.5718V26.5131Z" fill="#79BCDA"/>
        <path d="M31.0049 14.1454H34.1866V17.8589H31.0049V14.1454Z" fill="#79BCDA"/>
        <path d="M35.3325 14.1454H38.5126V17.8589H35.3325V14.1454Z" fill="#79BCDA"/>
        <path d="M39.7744 14.1454H42.957V17.8589H39.7744V14.1454Z" fill="#79BCDA"/>
        <path d="M43.8916 14.1454H47.0733V17.8589H43.8916V14.1454Z" fill="#79BCDA"/>
        <path d="M48.1162 14.1454H51.2955V17.8589H48.1162V14.1454Z" fill="#79BCDA"/>
        <path d="M6.55713 19.3488L7.76775 21.9283H52.0003V19.3488H6.55713Z" fill="#DE374B"/>
        <path d="M45.4731 36.8721C38.9081 37.2501 32.9256 36.1759 26.4386 37.7152C23.4551 38.424 20.3936 39.135 17.2785 38.8588C14.5891 38.6218 11.8737 37.9958 9.16893 37.9707C6.13993 37.9426 3.13368 38.3716 0.122559 38.8308V46.3672C0.122559 49.1793 2.62668 48.644 5.71825 48.644H46.4408C49.5356 48.644 52.0381 48.9644 52.0381 46.1523V35.9426C49.889 36.4107 47.7034 36.7451 45.4731 36.8721Z" fill="#013F6C"/>
        <path d="M19.6461 38.8941C26.7287 40.3175 33.327 40.0842 40.5079 39.9646C44.4404 39.8989 48.2616 40.127 52.043 40.6711V34.8933C49.8939 35.3614 47.7083 35.6958 45.478 35.8228C38.913 36.2008 32.9305 35.1266 26.4435 36.6659C23.46 37.3747 20.3985 38.0856 17.2834 37.8095C16.778 37.7615 16.2736 37.7051 15.7705 37.6405C17.0071 38.1772 18.2876 38.6216 19.6478 38.8941" fill="#93DFF9"/>
    </g>
    <defs>
        <clipPath id="clip0">
            <rect width="52" height="47.25" fill="white" transform="translate(0 0.400024)"/>
        </clipPath>
    </defs>
</svg>
