<svg width="20" height="20" viewBox="0 0 20 20" fill="none" xmlns="http://www.w3.org/2000/svg">
    <path d="M8.45515 11.4666C9.61486 12.6431 11.0181 13.5514 12.5663 14.1278L14.6607 12.4611C14.7228 12.4183 14.7964 12.3954 14.8718 12.3954C14.9472 12.3954 15.0208 12.4183 15.0829 12.4611L18.9718 14.9666C19.1194 15.0554 19.2444 15.1773 19.3369 15.3226C19.4293 15.468 19.4867 15.6329 19.5045 15.8042C19.5223 15.9756 19.5 16.1487 19.4393 16.3099C19.3787 16.4712 19.2814 16.6161 19.1551 16.7333L17.3329 18.5333C17.072 18.7912 16.7512 18.9804 16.3993 19.0841C16.0474 19.1878 15.6754 19.2028 15.3163 19.1278C11.7342 18.3879 8.43244 16.6553 5.78848 14.1278C3.20319 11.5751 1.41419 8.32712 0.638479 4.77776C0.561849 4.42422 0.577843 4.05689 0.68491 3.71135C0.791977 3.36582 0.986488 3.0538 1.24959 2.80553L3.13848 0.983311C3.25537 0.863192 3.39792 0.771074 3.55545 0.713854C3.71298 0.656633 3.88142 0.635793 4.04815 0.652893C4.21488 0.669994 4.37558 0.724592 4.51822 0.8126C4.66086 0.900607 4.78174 1.01974 4.87181 1.16109L7.4607 4.99998C7.50535 5.06026 7.52946 5.13329 7.52946 5.20831C7.52946 5.28333 7.50535 5.35636 7.4607 5.41664L5.75515 7.46664C6.34713 8.98383 7.26944 10.3502 8.45515 11.4666Z" fill="#013F6C"/>
</svg>
