<svg width="39" height="39" viewbox="0 0 39 39" fill="none" xmlns="http://www.w3.org/2000/svg">
   <path d="M34.125 19.5L39 24.375L32.9062 26.8125L34.125 34.125L26.8125 32.9062L24.375 39L19.5 34.125L14.625 39L12.1875 32.9062L4.875 34.125L6.09375 26.8125L0 24.375L4.875 19.5L0 14.625L6.09375 12.1875L4.875 4.875L12.1875 6.09375L14.625 0L19.5 4.875L24.375 0L26.8125 6.09375L34.125 4.875L32.9062 12.1875L39 14.625L34.125 19.5ZM13.4062 9.75C12.3906 9.75 11.5273 10.2261 10.8164 11.1782C10.1055 12.1304 9.75 13.2793 9.75 14.625C9.75 15.9707 10.1055 17.1196 10.8164 18.0718C11.5273 19.0239 12.3906 19.5 13.4062 19.5C14.4219 19.5 15.2852 19.0239 15.9961 18.0718C16.707 17.1196 17.0625 15.9707 17.0625 14.625C17.0625 13.2793 16.707 12.1304 15.9961 11.1782C15.2852 10.2261 14.4219 9.75 13.4062 9.75ZM25.5938 9.75H24.375C24.2734 9.75 24.1782 9.76904 24.0894 9.80713C24.0005 9.84521 23.9307 9.87695 23.8799 9.90234C23.8291 9.92773 23.7593 9.99756 23.6704 10.1118C23.5815 10.2261 23.5244 10.3022 23.499 10.3403C23.4736 10.3784 23.4165 10.48 23.3276 10.645C23.2388 10.8101 23.1816 10.918 23.1562 10.9688L12.3779 28.0312C12.2002 28.3359 12.2383 28.6152 12.4922 28.8691C12.7461 29.123 13.0508 29.25 13.4062 29.25H14.625C14.7266 29.25 14.8091 29.2437 14.8726 29.231C14.936 29.2183 15.0059 29.1865 15.082 29.1357C15.1582 29.085 15.2153 29.0405 15.2534 29.0024C15.2915 28.9644 15.3423 28.8945 15.4058 28.793C15.4692 28.6914 15.5137 28.6152 15.5391 28.5645C15.5645 28.5137 15.6152 28.4248 15.6914 28.2979C15.7676 28.1709 15.8184 28.082 15.8438 28.0312L26.6221 10.9688C26.7998 10.6641 26.7617 10.3848 26.5078 10.1309C26.2539 9.87695 25.9492 9.75 25.5938 9.75ZM25.5938 19.5C24.5781 19.5 23.7148 19.9761 23.0039 20.9282C22.293 21.8804 21.9375 23.0293 21.9375 24.375C21.9375 25.7207 22.293 26.8696 23.0039 27.8218C23.7148 28.7739 24.5781 29.25 25.5938 29.25C26.6094 29.25 27.4727 28.7739 28.1836 27.8218C28.8945 26.8696 29.25 25.7207 29.25 24.375C29.25 23.0293 28.8945 21.8804 28.1836 20.9282C27.4727 19.9761 26.6094 19.5 25.5938 19.5ZM25.5938 26.8125C25.2637 26.8125 24.978 26.5713 24.7368 26.0889C24.4956 25.6064 24.375 25.0288 24.375 24.356C24.375 23.6831 24.4956 23.1118 24.7368 22.6421C24.978 22.1724 25.2637 21.9375 25.5938 21.9375C25.9238 21.9375 26.2095 22.1724 26.4507 22.6421C26.6919 23.1118 26.8125 23.6831 26.8125 24.356C26.8125 25.0288 26.6919 25.6064 26.4507 26.0889C26.2095 26.5713 25.9238 26.8125 25.5938 26.8125ZM13.4062 17.0625C13.0762 17.0625 12.7905 16.8213 12.5493 16.3389C12.3081 15.8564 12.1875 15.2788 12.1875 14.606C12.1875 13.9331 12.3081 13.3618 12.5493 12.8921C12.7905 12.4224 13.0762 12.1875 13.4062 12.1875C13.7363 12.1875 14.022 12.4224 14.2632 12.8921C14.5044 13.3618 14.625 13.9331 14.625 14.606C14.625 15.2788 14.5044 15.8564 14.2632 16.3389C14.022 16.8213 13.7363 17.0625 13.4062 17.0625Z" fill="#E72828"/>
</svg>