<svg width="45" height="45" viewbox="0 0 45 45" fill="none" xmlns="http://www.w3.org/2000/svg">
   <path d="M31.8694 37.5C30.1838 37.5 29.4544 36.9169 28.3519 36.0356C27.0769 35.0175 25.4925 33.75 22.4888 33.75C19.4869 33.75 17.9025 35.0175 16.6294 36.0375C15.5288 36.9169 14.8012 37.5 13.1156 37.5C11.4337 37.5 10.7063 36.9169 9.60563 36.0375C8.3325 35.0175 6.75187 33.75 3.75 33.75V37.5C5.43375 37.5 6.16125 38.0831 7.26187 38.9625C8.535 39.9825 10.1175 41.25 13.1156 41.25C16.1175 41.25 17.7 39.9825 18.9731 38.9644C20.0756 38.0831 20.8031 37.5 22.4888 37.5C24.1763 37.5 24.9469 38.115 26.01 38.9644C27.2831 39.9825 28.8675 41.25 31.8694 41.25C34.8713 41.25 36.4556 39.9825 37.7287 38.9644C38.7919 38.115 39.5625 37.5 41.25 37.5V33.75C38.2463 33.75 36.6619 35.0175 35.3869 36.0356C34.2844 36.9169 33.555 37.5 31.8694 37.5ZM11.25 15.9375L7.5 16.875L11.25 31.875H13.1156C16.1175 31.875 17.7 30.6075 18.9731 29.5894C20.0756 28.7081 20.8031 28.125 22.4888 28.125C24.1763 28.125 24.9469 28.74 26.01 29.5894C27.2831 30.6075 28.8675 31.875 31.8694 31.875H33.75L33.8006 31.6744L34.3875 29.3269L37.5 16.875L33.75 15.9375V9.37687C33.7502 8.94325 33.6 8.52298 33.3252 8.1876C33.0503 7.85223 32.6677 7.62249 32.2425 7.5375L24.375 5.96438V3.75H20.625V5.96438L12.7575 7.5375C12.3323 7.62249 11.9497 7.85223 11.6748 8.1876C11.4 8.52298 11.2498 8.94325 11.25 9.37687V15.9375ZM15 10.9106L22.5 9.41062L30 10.9106V15L22.5 13.125L15 15V10.9106Z" fill="#4F4F4F"/>
</svg>