<svg xmlns="http://www.w3.org/2000/svg" data-name="Layer 1" viewBox="0 0 512 512" id="fireworks"><path fill="#e53950" d="M376.487 116.188a7.5 7.5 0 0 1-7.5-7.5v-52.92a7.5 7.5 0 0 1 15 0v52.92a7.5 7.5 0 0 1-7.5 7.5zm0 170.305a7.5 7.5 0 0 1-7.5-7.5v-52.92a7.5 7.5 0 1 1 15 0v52.92a7.5 7.5 0 0 1-7.5 7.5zm-58.692-111.612h-52.921a7.5 7.5 0 0 1 0-15h52.92a7.5 7.5 0 0 1 0 15zm170.305 0h-52.921a7.5 7.5 0 0 1 0-15h52.92a7.5 7.5 0 0 1 0 15zm-70.112-41.502a7.5 7.5 0 0 1-5.303-12.804l37.421-37.42a7.5 7.5 0 0 1 10.606 10.607l-37.42 37.42a7.478 7.478 0 0 1-5.304 2.197zM297.564 253.803a7.5 7.5 0 0 1-5.303-12.804l37.421-37.42a7.5 7.5 0 0 1 10.607 10.607l-37.421 37.42a7.478 7.478 0 0 1-5.304 2.197zm37.421-120.424a7.478 7.478 0 0 1-5.303-2.196l-37.42-37.421a7.5 7.5 0 0 1 10.606-10.608l37.42 37.421a7.5 7.5 0 0 1-5.303 12.804zM455.41 253.803a7.478 7.478 0 0 1-5.303-2.197l-37.42-37.42a7.5 7.5 0 0 1 10.605-10.608L460.712 241a7.5 7.5 0 0 1-5.303 12.804z"></path><circle cx="376.487" cy="167.38" r="16.391" fill="#fac600"></circle><path d="M119.58 75.767a7.525 7.525 0 1 1 7.5-7.6v.1a7.5 7.5 0 0 1-7.5 7.5zm0-30.1a7.5 7.5 0 0 1-7.5-7.5v-.1a7.5 7.5 0 1 1 15 0v.1a7.5 7.5 0 0 1-7.5 7.5zm0-30.1a7.525 7.525 0 0 1 0-15.05 7.457 7.457 0 0 1 7.5 7.45v.1a7.5 7.5 0 0 1-7.5 7.5zm0 223.076a7.457 7.457 0 0 1-7.5-7.45v-.1a7.5 7.5 0 1 1 7.5 7.55zm0-30.05a7.5 7.5 0 0 1-7.5-7.5v-.1a7.5 7.5 0 0 1 15 0v.1a7.5 7.5 0 0 1-7.5 7.5zM68.267 127.08a7.542 7.542 0 0 1-7.55-7.5 7.457 7.457 0 0 1 7.45-7.5h.1a7.5 7.5 0 0 1 0 15zm-30.1 0h-.1a7.5 7.5 0 0 1 0-15h.1a7.5 7.5 0 1 1 0 15zm-30.1 0h-.1a7.5 7.5 0 0 1 0-15h.1a7.5 7.5 0 0 1 0 15zm223.125 0h-.1a7.5 7.5 0 0 1 0-15h.1a7.5 7.5 0 0 1 0 15zm-30.1 0h-.1a7.5 7.5 0 0 1 0-15h.1a7.5 7.5 0 0 1 0 15zm-30.1 0h-.1a7.5 7.5 0 1 1 .1 0z"></path><path fill="#46cc8d" d="M119.58 75.767a7.525 7.525 0 1 1 7.5-7.6v.1a7.5 7.5 0 0 1-7.5 7.5zm0-30.1a7.5 7.5 0 0 1-7.5-7.5v-.1a7.5 7.5 0 1 1 15 0v.1a7.5 7.5 0 0 1-7.5 7.5zm0-30.1a7.525 7.525 0 0 1 0-15.05 7.457 7.457 0 0 1 7.5 7.45v.1a7.5 7.5 0 0 1-7.5 7.5zm0 223.076a7.457 7.457 0 0 1-7.5-7.45v-.1a7.5 7.5 0 1 1 7.5 7.55zm0-30.05a7.5 7.5 0 0 1-7.5-7.5v-.1a7.5 7.5 0 0 1 15 0v.1a7.5 7.5 0 0 1-7.5 7.5zm0-30.15a7.457 7.457 0 0 1-7.5-7.45v-.1a7.5 7.5 0 1 1 7.5 7.55zM68.267 127.08a7.542 7.542 0 0 1-7.55-7.5 7.457 7.457 0 0 1 7.45-7.5h.1a7.5 7.5 0 0 1 0 15zm-30.1 0h-.1a7.5 7.5 0 0 1 0-15h.1a7.5 7.5 0 1 1 0 15zm-30.1 0h-.1a7.5 7.5 0 0 1 0-15h.1a7.5 7.5 0 0 1 0 15zm223.125 0h-.1a7.5 7.5 0 0 1 0-15h.1a7.5 7.5 0 0 1 0 15zm-30.1 0h-.1a7.5 7.5 0 0 1 0-15h.1a7.5 7.5 0 0 1 0 15zm-30.1 0h-.1a7.5 7.5 0 1 1 .1 0zM83.296 90.796a7.478 7.478 0 0 1-5.321-2.215l-.071-.071a7.5 7.5 0 1 1 10.642-10.57l.071.07a7.5 7.5 0 0 1-5.321 12.786zM62.012 69.512a7.515 7.515 0 1 1 5.233-12.874l.07.07a7.5 7.5 0 0 1-5.303 12.804zM40.728 48.228a7.515 7.515 0 1 1 5.214-12.892l.071.07a7.5 7.5 0 0 1-5.285 12.822zM198.45 205.984a7.393 7.393 0 0 1-5.233-2.16l-.071-.071a7.459 7.459 0 1 1 5.304 2.231zM177.166 184.7a7.398 7.398 0 0 1-5.251-2.179l-.07-.07a7.46 7.46 0 1 1 5.321 2.25zm-21.232-21.265a7.478 7.478 0 0 1-5.321-2.215l-.071-.072a7.5 7.5 0 1 1 10.643-10.57l.07.071a7.5 7.5 0 0 1-5.32 12.786zM40.676 205.949a7.482 7.482 0 0 1-5.304-12.768l.07-.07a7.5 7.5 0 1 1 5.234 12.838zm21.283-21.284a7.482 7.482 0 0 1-5.32-12.751l.07-.07a7.5 7.5 0 1 1 5.25 12.821zm21.266-21.23a7.5 7.5 0 0 1-5.321-12.786l.07-.07a7.5 7.5 0 0 1 10.643 10.57l-.07.07a7.478 7.478 0 0 1-5.322 2.216zm72.638-72.64a7.5 7.5 0 0 1-5.321-12.784l.07-.072a7.5 7.5 0 0 1 10.643 10.57l-.07.072a7.478 7.478 0 0 1-5.322 2.215zm21.284-21.283a7.535 7.535 0 1 1 5.374-2.267l-.07.07a7.478 7.478 0 0 1-5.304 2.197zm21.284-21.284a7.535 7.535 0 1 1 5.356-2.25l-.07.07a7.476 7.476 0 0 1-5.286 2.18z"></path><path fill="#26a6fe" d="M119.58 137.473a17.893 17.893 0 1 1 17.893-17.893 17.913 17.913 0 0 1-17.893 17.893Z"></path><path fill="#fac600" d="M176.332 341.229a7.5 7.5 0 0 1-7.5-7.5v-52.921a7.5 7.5 0 0 1 15 0v52.92a7.5 7.5 0 0 1-7.5 7.5zm0-79.668a7.5 7.5 0 0 1-7.5-7.5v-5.12a7.5 7.5 0 0 1 15 0v5.12a7.5 7.5 0 0 1-7.5 7.5zm0 218.105a7.5 7.5 0 0 1-7.5-7.5v-52.92a7.5 7.5 0 0 1 15 0v52.92a7.5 7.5 0 0 1-7.5 7.5zm0 31.867a7.5 7.5 0 0 1-7.5-7.5v-5.12a7.5 7.5 0 0 1 15 0v5.12a7.5 7.5 0 0 1-7.5 7.5zm-42.758-127.547H80.653a7.5 7.5 0 0 1 0-15h52.92a7.5 7.5 0 0 1 0 15zm-79.668 0h-5.12a7.5 7.5 0 0 1 0-15h5.12a7.5 7.5 0 0 1 0 15zm218.105 0h-52.92a7.5 7.5 0 1 1 0-15h52.92a7.5 7.5 0 0 1 0 15zm31.867 0h-5.12a7.5 7.5 0 0 1 0-15h5.12a7.5 7.5 0 0 1 0 15zm-157.78-30.234a7.478 7.478 0 0 1-5.304-2.196l-37.42-37.421a7.5 7.5 0 0 1 10.606-10.608l37.42 37.421a7.5 7.5 0 0 1-5.303 12.804zm-56.334-56.334a7.477 7.477 0 0 1-5.303-2.196l-3.62-3.62a7.5 7.5 0 0 1 10.605-10.608l3.62 3.62a7.5 7.5 0 0 1-5.302 12.804zm154.223 154.225a7.478 7.478 0 0 1-5.303-2.197l-37.42-37.42a7.5 7.5 0 1 1 10.606-10.608l37.42 37.42a7.5 7.5 0 0 1-5.303 12.805zm22.534 22.533a7.477 7.477 0 0 1-5.303-2.197l-3.62-3.62a7.5 7.5 0 0 1 10.605-10.607l3.62 3.62a7.5 7.5 0 0 1-5.302 12.804zm-157.844-22.533a7.5 7.5 0 0 1-5.303-12.804l37.42-37.421a7.5 7.5 0 1 1 10.606 10.607l-37.42 37.421a7.478 7.478 0 0 1-5.303 2.197zm-22.534 22.533a7.5 7.5 0 0 1-5.303-12.804l3.62-3.62a7.5 7.5 0 0 1 10.606 10.607l-3.62 3.62a7.478 7.478 0 0 1-5.303 2.197zm120.423-120.424a7.5 7.5 0 0 1-5.303-12.804l37.421-37.42a7.5 7.5 0 0 1 10.607 10.607l-37.421 37.42a7.478 7.478 0 0 1-5.304 2.197zm56.334-56.334a7.5 7.5 0 0 1-5.302-12.804l3.62-3.62a7.5 7.5 0 1 1 10.606 10.608l-3.62 3.62a7.478 7.478 0 0 1-5.304 2.196z"></path><circle cx="176.332" cy="376.487" r="16.391" fill="#e53950"></circle></svg>