<svg width="20"  viewBox="0 0 21 20" fill="none" xmlns="http://www.w3.org/2000/svg">
                        <path d="M6.80518 9.16668H8.47184V10.8333H6.80518V9.16668ZM6.80518 12.5H8.47184V14.1667H6.80518V12.5ZM10.1385 9.16668H11.8052V10.8333H10.1385V9.16668ZM10.1385 12.5H11.8052V14.1667H10.1385V12.5ZM13.4718 9.16668H15.1385V10.8333H13.4718V9.16668ZM13.4718 12.5H15.1385V14.1667H13.4718V12.5Z" fill="#F0280D"/>
                        <path d="M5.13883 18.3333H16.8055C17.7247 18.3333 18.4722 17.5858 18.4722 16.6667V5.00001C18.4722 4.08085 17.7247 3.33335 16.8055 3.33335H15.1388V1.66668H13.4722V3.33335H8.47216V1.66668H6.8055V3.33335H5.13883C4.21967 3.33335 3.47217 4.08085 3.47217 5.00001V16.6667C3.47217 17.5858 4.21967 18.3333 5.13883 18.3333ZM16.8055 6.66668L16.8063 16.6667H5.13883V6.66668H16.8055Z" fill="#e12c2e"/>
                    </svg>