<svg width="40" viewBox="0 0 58 51" fill="none" xmlns="http://www.w3.org/2000/svg">
    <path d="M56.4195 16.4142C57.2006 15.6332 57.2006 14.3668 56.4195 13.5858L43.6916 0.857864C42.9106 0.0768156 41.6442 0.0768156 40.8632 0.857864C40.0821 1.63891 40.0821 2.90524 40.8632 3.68629L52.1769 15L40.8632 26.3137C40.0821 27.0948 40.0821 28.3611 40.8632 29.1421C41.6442 29.9232 42.9106 29.9232 43.6916 29.1421L56.4195 16.4142ZM0 17H55.0053V13H0L0 17Z" fill="black"/>
    <path d="M3.504 46.24C3.65333 46.2613 3.85067 46.2827 4.096 46.304C4.352 46.3147 4.58667 46.32 4.8 46.32C5.33333 46.32 5.74933 46.256 6.048 46.128C6.34667 45.9893 6.496 45.744 6.496 45.392C6.496 45.0507 6.35733 44.816 6.08 44.688C5.81333 44.5493 5.41867 44.48 4.896 44.48H3.504V46.24ZM4.848 42.88C5.24267 42.88 5.56267 42.832 5.808 42.736C6.05333 42.6293 6.176 42.4053 6.176 42.064C6.176 41.744 6.03733 41.5253 5.76 41.408C5.48267 41.2907 5.12 41.232 4.672 41.232C4.52267 41.232 4.32533 41.2427 4.08 41.264C3.84533 41.2747 3.65333 41.2907 3.504 41.312V42.88H4.848ZM4.768 48.16C4.46933 48.16 4.14933 48.1493 3.808 48.128C3.46667 48.1067 3.13067 48.0747 2.8 48.032C2.46933 48 2.15467 47.9627 1.856 47.92C1.568 47.8667 1.32267 47.8187 1.12 47.776V39.712C1.32267 39.6693 1.568 39.632 1.856 39.6C2.15467 39.5573 2.46933 39.52 2.8 39.488C3.13067 39.456 3.46667 39.4347 3.808 39.424C4.14933 39.4027 4.46933 39.392 4.768 39.392C5.46133 39.392 6.04267 39.4613 6.512 39.6C6.992 39.7387 7.376 39.92 7.664 40.144C7.96267 40.368 8.176 40.6187 8.304 40.896C8.432 41.1733 8.496 41.4507 8.496 41.728C8.496 42.1013 8.40533 42.4427 8.224 42.752C8.04267 43.0613 7.81333 43.2853 7.536 43.424C7.68533 43.488 7.83467 43.5787 7.984 43.696C8.144 43.8133 8.288 43.9573 8.416 44.128C8.544 44.288 8.64533 44.4853 8.72 44.72C8.80533 44.944 8.848 45.2053 8.848 45.504C8.848 45.8453 8.77867 46.176 8.64 46.496C8.512 46.816 8.288 47.0987 7.968 47.344C7.648 47.5893 7.22667 47.7867 6.704 47.936C6.18133 48.0853 5.536 48.16 4.768 48.16ZM17.9305 39.584V48H15.5465V41.568H13.0665V48H10.6825V39.584H17.9305ZM19.7669 43.856C19.7669 43.1093 19.8789 42.4587 20.1029 41.904C20.3375 41.3387 20.6415 40.8693 21.0149 40.496C21.3882 40.1227 21.8149 39.84 22.2949 39.648C22.7855 39.456 23.2869 39.36 23.7989 39.36C24.9935 39.36 25.9375 39.728 26.6309 40.464C27.3242 41.1893 27.6709 42.2613 27.6709 43.68C27.6709 43.8187 27.6655 43.9733 27.6549 44.144C27.6442 44.304 27.6335 44.448 27.6229 44.576H22.2149C22.2682 45.0667 22.4975 45.456 22.9029 45.744C23.3082 46.032 23.8522 46.176 24.5349 46.176C24.9722 46.176 25.3989 46.1387 25.8149 46.064C26.2415 45.9787 26.5882 45.8773 26.8549 45.76L27.1749 47.696C27.0469 47.76 26.8762 47.824 26.6629 47.888C26.4495 47.952 26.2095 48.0053 25.9429 48.048C25.6869 48.1013 25.4095 48.144 25.1109 48.176C24.8122 48.208 24.5135 48.224 24.2149 48.224C23.4575 48.224 22.7962 48.112 22.2309 47.888C21.6762 47.664 21.2122 47.36 20.8389 46.976C20.4762 46.5813 20.2042 46.1173 20.0229 45.584C19.8522 45.0507 19.7669 44.4747 19.7669 43.856ZM25.3669 42.944C25.3562 42.7413 25.3189 42.544 25.2549 42.352C25.2015 42.16 25.1109 41.9893 24.9829 41.84C24.8655 41.6907 24.7109 41.568 24.5189 41.472C24.3375 41.376 24.1082 41.328 23.8309 41.328C23.5642 41.328 23.3349 41.376 23.1429 41.472C22.9509 41.5573 22.7909 41.6747 22.6629 41.824C22.5349 41.9733 22.4335 42.1493 22.3589 42.352C22.2949 42.544 22.2469 42.7413 22.2149 42.944H25.3669ZM34.9026 43.856C34.9026 43.12 34.7373 42.5333 34.4066 42.096C34.076 41.648 33.5853 41.424 32.9346 41.424C32.7213 41.424 32.524 41.4347 32.3426 41.456C32.1613 41.4667 32.012 41.4827 31.8946 41.504V45.808C32.044 45.904 32.236 45.984 32.4706 46.048C32.716 46.112 32.9613 46.144 33.2066 46.144C34.3373 46.144 34.9026 45.3813 34.9026 43.856ZM37.3346 43.792C37.3346 44.4427 37.2546 45.0347 37.0946 45.568C36.9346 46.1013 36.7 46.56 36.3906 46.944C36.0813 47.328 35.6973 47.6267 35.2386 47.84C34.78 48.0533 34.252 48.16 33.6546 48.16C33.324 48.16 33.0146 48.128 32.7266 48.064C32.4386 48 32.1613 47.9093 31.8946 47.792V50.96H29.5106V39.872C29.724 39.808 29.9693 39.7493 30.2466 39.696C30.524 39.632 30.812 39.5787 31.1106 39.536C31.42 39.4933 31.7293 39.4613 32.0386 39.44C32.3586 39.408 32.6626 39.392 32.9506 39.392C33.644 39.392 34.2626 39.4987 34.8066 39.712C35.3506 39.9147 35.8093 40.208 36.1826 40.592C36.556 40.9653 36.8386 41.424 37.0306 41.968C37.2333 42.512 37.3346 43.12 37.3346 43.792ZM38.7669 43.856C38.7669 43.1093 38.8789 42.4587 39.1029 41.904C39.3375 41.3387 39.6415 40.8693 40.0149 40.496C40.3882 40.1227 40.8149 39.84 41.2949 39.648C41.7855 39.456 42.2869 39.36 42.7989 39.36C43.9935 39.36 44.9375 39.728 45.6309 40.464C46.3242 41.1893 46.6709 42.2613 46.6709 43.68C46.6709 43.8187 46.6655 43.9733 46.6549 44.144C46.6442 44.304 46.6335 44.448 46.6229 44.576H41.2149C41.2682 45.0667 41.4975 45.456 41.9029 45.744C42.3082 46.032 42.8522 46.176 43.5349 46.176C43.9722 46.176 44.3989 46.1387 44.8149 46.064C45.2415 45.9787 45.5882 45.8773 45.8549 45.76L46.1749 47.696C46.0469 47.76 45.8762 47.824 45.6629 47.888C45.4495 47.952 45.2095 48.0053 44.9429 48.048C44.6869 48.1013 44.4095 48.144 44.1109 48.176C43.8122 48.208 43.5135 48.224 43.2149 48.224C42.4575 48.224 41.7962 48.112 41.2309 47.888C40.6762 47.664 40.2122 47.36 39.8389 46.976C39.4762 46.5813 39.2042 46.1173 39.0229 45.584C38.8522 45.0507 38.7669 44.4747 38.7669 43.856ZM44.3669 42.944C44.3562 42.7413 44.3189 42.544 44.2549 42.352C44.2015 42.16 44.1109 41.9893 43.9829 41.84C43.8655 41.6907 43.7109 41.568 43.5189 41.472C43.3375 41.376 43.1082 41.328 42.8309 41.328C42.5642 41.328 42.3349 41.376 42.1429 41.472C41.9509 41.5573 41.7909 41.6747 41.6629 41.824C41.5349 41.9733 41.4335 42.1493 41.3589 42.352C41.2949 42.544 41.2469 42.7413 41.2149 42.944H44.3669ZM47.7106 46.048H48.7506C49.0493 45.6853 49.2786 45.2373 49.4386 44.704C49.6093 44.16 49.7266 43.5893 49.7906 42.992C49.8653 42.384 49.908 41.7813 49.9186 41.184C49.9293 40.5867 49.9346 40.0533 49.9346 39.584H56.4946V46.048H57.9186V50.4H55.8866V48H49.7426V50.4H47.7106V46.048ZM54.1106 46.048V41.536H52.1586C52.1373 41.9093 52.1106 42.2987 52.0786 42.704C52.0573 43.0987 52.0093 43.4933 51.9346 43.888C51.8706 44.272 51.78 44.6507 51.6626 45.024C51.5453 45.3973 51.3906 45.7387 51.1986 46.048H54.1106Z" fill="black"/>
</svg>