<svg width="40"  viewBox="0 0 58 51" fill="none" xmlns="http://www.w3.org/2000/svg">
                        <path d="M0.585785 13.5858C-0.195263 14.3668 -0.195263 15.6332 0.585785 16.4142L13.3137 29.1421C14.0948 29.9232 15.3611 29.9232 16.1421 29.1421C16.9232 28.3611 16.9232 27.0948 16.1421 26.3137L4.82843 15L16.1421 3.68629C16.9232 2.90524 16.9232 1.63891 16.1421 0.857864C15.3611 0.0768156 14.0948 0.0768156 13.3137 0.857864L0.585785 13.5858ZM57.0053 13L2 13V17L57.0053 17V13Z" fill="black"/>
                        <path d="M13.368 48H10.984V44.672H8.504V48H6.12V39.584H8.504V42.72H10.984V39.584H13.368V48ZM18.8204 46.336C19.055 46.336 19.279 46.3307 19.4924 46.32C19.7057 46.3093 19.8764 46.2933 20.0044 46.272V44.464C19.9084 44.4427 19.7644 44.4213 19.5724 44.4C19.3804 44.3787 19.2044 44.368 19.0444 44.368C18.8204 44.368 18.607 44.384 18.4044 44.416C18.2124 44.4373 18.0417 44.4853 17.8924 44.56C17.743 44.6347 17.6257 44.736 17.5404 44.864C17.455 44.992 17.4124 45.152 17.4124 45.344C17.4124 45.7173 17.535 45.9787 17.7804 46.128C18.0364 46.2667 18.383 46.336 18.8204 46.336ZM18.6284 39.36C19.3324 39.36 19.919 39.44 20.3884 39.6C20.8577 39.76 21.231 39.9893 21.5084 40.288C21.7964 40.5867 21.999 40.9493 22.1164 41.376C22.2337 41.8027 22.2924 42.2773 22.2924 42.8V47.76C21.951 47.8347 21.4764 47.92 20.8684 48.016C20.2604 48.1227 19.5244 48.176 18.6604 48.176C18.1164 48.176 17.6204 48.128 17.1724 48.032C16.735 47.936 16.3564 47.7813 16.0364 47.568C15.7164 47.344 15.471 47.056 15.3004 46.704C15.1297 46.352 15.0444 45.92 15.0444 45.408C15.0444 44.9173 15.1404 44.5013 15.3324 44.16C15.535 43.8187 15.8017 43.5467 16.1324 43.344C16.463 43.1413 16.8417 42.9973 17.2684 42.912C17.695 42.816 18.1377 42.768 18.5964 42.768C18.9057 42.768 19.1777 42.784 19.4124 42.816C19.6577 42.8373 19.855 42.8693 20.0044 42.912V42.688C20.0044 42.2827 19.8817 41.9573 19.6364 41.712C19.391 41.4667 18.9644 41.344 18.3564 41.344C17.951 41.344 17.551 41.376 17.1564 41.44C16.7617 41.4933 16.4204 41.5733 16.1324 41.68L15.8284 39.76C15.967 39.7173 16.1377 39.6747 16.3404 39.632C16.5537 39.5787 16.783 39.536 17.0284 39.504C17.2737 39.4613 17.5297 39.4293 17.7964 39.408C18.0737 39.376 18.351 39.36 18.6284 39.36ZM24.0481 39.856C24.4215 39.7173 24.8535 39.6053 25.3441 39.52C25.8348 39.4347 26.3681 39.392 26.9441 39.392C27.3815 39.392 27.8081 39.4347 28.2241 39.52C28.6401 39.5947 29.0081 39.728 29.3281 39.92C29.6588 40.1013 29.9201 40.3467 30.1121 40.656C30.3148 40.9547 30.4161 41.3333 30.4161 41.792C30.4161 42.208 30.3201 42.5653 30.1281 42.864C29.9361 43.152 29.6641 43.392 29.3121 43.584C29.7815 43.7867 30.1281 44.0533 30.3521 44.384C30.5761 44.7147 30.6881 45.136 30.6881 45.648C30.6881 46.128 30.5868 46.5333 30.3841 46.864C30.1815 47.184 29.9095 47.4453 29.5681 47.648C29.2268 47.8507 28.8375 47.9947 28.4001 48.08C27.9628 48.176 27.5095 48.224 27.0401 48.224C26.7628 48.224 26.4748 48.208 26.1761 48.176C25.8775 48.1547 25.5841 48.1173 25.2961 48.064C25.0188 48.0213 24.7521 47.9627 24.4961 47.888C24.2401 47.8133 24.0108 47.7333 23.8081 47.648L24.2401 45.792C24.4641 45.8773 24.8055 45.9787 25.2641 46.096C25.7335 46.2133 26.2615 46.272 26.8481 46.272C27.8081 46.272 28.2881 46.0053 28.2881 45.472C28.2881 45.2907 28.2508 45.1467 28.1761 45.04C28.1015 44.9227 28.0001 44.832 27.8721 44.768C27.7548 44.704 27.6161 44.6613 27.4561 44.64C27.2961 44.6187 27.1361 44.608 26.9761 44.608H25.1041V42.912H26.9921C27.3761 42.912 27.6428 42.8373 27.7921 42.688C27.9521 42.528 28.0321 42.3467 28.0321 42.144C28.0321 41.9413 27.9415 41.76 27.7601 41.6C27.5895 41.4293 27.2695 41.344 26.8001 41.344C26.3308 41.344 25.8881 41.3867 25.4721 41.472C25.0561 41.5573 24.7201 41.6373 24.4641 41.712L24.0481 39.856ZM35.586 46.336C35.8207 46.336 36.0447 46.3307 36.258 46.32C36.4713 46.3093 36.642 46.2933 36.77 46.272V44.464C36.674 44.4427 36.53 44.4213 36.338 44.4C36.146 44.3787 35.97 44.368 35.81 44.368C35.586 44.368 35.3727 44.384 35.17 44.416C34.978 44.4373 34.8073 44.4853 34.658 44.56C34.5087 44.6347 34.3913 44.736 34.306 44.864C34.2207 44.992 34.178 45.152 34.178 45.344C34.178 45.7173 34.3007 45.9787 34.546 46.128C34.802 46.2667 35.1487 46.336 35.586 46.336ZM35.394 39.36C36.098 39.36 36.6847 39.44 37.154 39.6C37.6233 39.76 37.9967 39.9893 38.274 40.288C38.562 40.5867 38.7647 40.9493 38.882 41.376C38.9993 41.8027 39.058 42.2773 39.058 42.8V47.76C38.7167 47.8347 38.242 47.92 37.634 48.016C37.026 48.1227 36.29 48.176 35.426 48.176C34.882 48.176 34.386 48.128 33.938 48.032C33.5007 47.936 33.122 47.7813 32.802 47.568C32.482 47.344 32.2367 47.056 32.066 46.704C31.8953 46.352 31.81 45.92 31.81 45.408C31.81 44.9173 31.906 44.5013 32.098 44.16C32.3007 43.8187 32.5673 43.5467 32.898 43.344C33.2287 43.1413 33.6073 42.9973 34.034 42.912C34.4607 42.816 34.9033 42.768 35.362 42.768C35.6713 42.768 35.9433 42.784 36.178 42.816C36.4233 42.8373 36.6207 42.8693 36.77 42.912V42.688C36.77 42.2827 36.6473 41.9573 36.402 41.712C36.1567 41.4667 35.73 41.344 35.122 41.344C34.7167 41.344 34.3167 41.376 33.922 41.44C33.5273 41.4933 33.186 41.5733 32.898 41.68L32.594 39.76C32.7327 39.7173 32.9033 39.6747 33.106 39.632C33.3193 39.5787 33.5487 39.536 33.794 39.504C34.0393 39.4613 34.2953 39.4293 34.562 39.408C34.8393 39.376 35.1167 39.36 35.394 39.36ZM40.4138 46.048H41.4538C41.7524 45.6853 41.9818 45.2373 42.1418 44.704C42.3124 44.16 42.4298 43.5893 42.4938 42.992C42.5684 42.384 42.6111 41.7813 42.6218 41.184C42.6324 40.5867 42.6378 40.0533 42.6378 39.584H49.1978V46.048H50.6218V50.4H48.5898V48H42.4457V50.4H40.4138V46.048ZM46.8138 46.048V41.536H44.8618C44.8404 41.9093 44.8138 42.2987 44.7818 42.704C44.7604 43.0987 44.7124 43.4933 44.6378 43.888C44.5738 44.272 44.4831 44.6507 44.3658 45.024C44.2484 45.3973 44.0938 45.7387 43.9018 46.048H46.8138Z" fill="black"/>
                    </svg>